<?xml version="1.0" encoding="utf-8"?>
<svg version="1.1" xmlns:xlink="http://www.w3.org/1999/xlink" width="334px" height="22px" xmlns="http://www.w3.org/2000/svg">
  <g transform="matrix(1 0 0 1 -397 -1179 )">
    <path d="M 410.5 1186.5  A 3.5 3.5 0 0 0 407 1190 A 3.5 3.5 0 0 0 410.5 1193.5 A 3.5 3.5 0 0 0 414 1190 A 3.5 3.5 0 0 0 410.5 1186.5 Z M 713.892893218813 1185.70710678119  L 718.185786437627 1190  L 713.892893218813 1194.29289321881  L 715.307106781187 1195.70710678119  L 720.307106781187 1190.70710678119  L 721.014213562373 1190  L 720.307106781187 1189.29289321881  L 715.307106781187 1184.29289321881  L 713.892893218813 1185.70710678119  Z " fill-rule="nonzero" fill="#ff0000" stroke="none" />
    <path d="M 409 1190  L 719 1190  " stroke-width="2" stroke="#ff0000" fill="none" />
  </g>
</svg>