<?xml version="1.0" encoding="utf-8"?>
<svg version="1.1" xmlns:xlink="http://www.w3.org/1999/xlink" width="85px" height="22px" xmlns="http://www.w3.org/2000/svg">
  <g transform="matrix(1 0 0 1 -626 -68 )">
    <path d="M 639.5 75.5  A 3.5 3.5 0 0 0 636 79 A 3.5 3.5 0 0 0 639.5 82.5 A 3.5 3.5 0 0 0 643 79 A 3.5 3.5 0 0 0 639.5 75.5 Z M 697.5 75.5  A 3.5 3.5 0 0 0 694 79 A 3.5 3.5 0 0 0 697.5 82.5 A 3.5 3.5 0 0 0 701 79 A 3.5 3.5 0 0 0 697.5 75.5 Z " fill-rule="nonzero" fill="#ff0000" stroke="none" />
    <path d="M 638 79  L 699 79  " stroke-width="2" stroke="#ff0000" fill="none" />
  </g>
</svg>