<?xml version="1.0" encoding="utf-8"?>
<svg version="1.1" xmlns:xlink="http://www.w3.org/1999/xlink" width="307px" height="22px" xmlns="http://www.w3.org/2000/svg">
  <g transform="matrix(1 0 0 1 -404 -829 )">
    <path d="M 417.5 836.5  A 3.5 3.5 0 0 0 414 840 A 3.5 3.5 0 0 0 417.5 843.5 A 3.5 3.5 0 0 0 421 840 A 3.5 3.5 0 0 0 417.5 836.5 Z M 697.5 836.5  A 3.5 3.5 0 0 0 694 840 A 3.5 3.5 0 0 0 697.5 843.5 A 3.5 3.5 0 0 0 701 840 A 3.5 3.5 0 0 0 697.5 836.5 Z " fill-rule="nonzero" fill="#ff0000" stroke="none" />
    <path d="M 416 840  L 699 840  " stroke-width="2" stroke="#ff0000" fill="none" />
  </g>
</svg>