<?xml version="1.0" encoding="utf-8"?>
<svg version="1.1" xmlns:xlink="http://www.w3.org/1999/xlink" width="165px" height="22px" xmlns="http://www.w3.org/2000/svg">
  <g transform="matrix(1 0 0 1 -403 -475 )">
    <path d="M 416.5 482.5  A 3.5 3.5 0 0 0 413 486 A 3.5 3.5 0 0 0 416.5 489.5 A 3.5 3.5 0 0 0 420 486 A 3.5 3.5 0 0 0 416.5 482.5 Z M 554.5 482.5  A 3.5 3.5 0 0 0 551 486 A 3.5 3.5 0 0 0 554.5 489.5 A 3.5 3.5 0 0 0 558 486 A 3.5 3.5 0 0 0 554.5 482.5 Z " fill-rule="nonzero" fill="#ff0000" stroke="none" />
    <path d="M 415 486  L 556 486  " stroke-width="2" stroke="#ff0000" fill="none" />
  </g>
</svg>