<?xml version="1.0" encoding="utf-8"?>
<svg version="1.1" xmlns:xlink="http://www.w3.org/1999/xlink" width="15px" height="15px" xmlns="http://www.w3.org/2000/svg">
  <defs>
    <mask fill="white" id="clip1">
      <path d="M 0 7.5  C 0 5.39999999999998  0.825000000000045 3.52499999999998  2.17499999999995 2.17500000000001  C 3.52500000000009 0.824999999999989  5.40000000000009 0  7.5 0  C 11.7 0  15 3.30000000000001  15 7.5  C 15 11.7  11.7 15  7.5 15  C 3.29999999999995 15  0 11.7  0 7.5  Z " fill-rule="evenodd" />
    </mask>
  </defs>
  <g transform="matrix(1 0 0 1 -1072 -460 )">
    <path d="M 0 7.5  C 0 5.39999999999998  0.825000000000045 3.52499999999998  2.17499999999995 2.17500000000001  C 3.52500000000009 0.824999999999989  5.40000000000009 0  7.5 0  C 11.7 0  15 3.30000000000001  15 7.5  C 15 11.7  11.7 15  7.5 15  C 3.29999999999995 15  0 11.7  0 7.5  Z " fill-rule="nonzero" fill="#ffffff" stroke="none" transform="matrix(1 0 0 1 1072 460 )" />
    <path d="M 0 7.5  C 0 5.39999999999998  0.825000000000045 3.52499999999998  2.17499999999995 2.17500000000001  C 3.52500000000009 0.824999999999989  5.40000000000009 0  7.5 0  C 11.7 0  15 3.30000000000001  15 7.5  C 15 11.7  11.7 15  7.5 15  C 3.29999999999995 15  0 11.7  0 7.5  Z " stroke-width="2" stroke="#ff0000" fill="none" transform="matrix(1 0 0 1 1072 460 )" mask="url(#clip1)" />
  </g>
</svg>