<?xml version="1.0" encoding="utf-8"?>
<svg version="1.1" xmlns:xlink="http://www.w3.org/1999/xlink" width="234px" height="22px" xmlns="http://www.w3.org/2000/svg">
  <g transform="matrix(1 0 0 1 -376 -459 )">
    <path d="M 389.5 466.5  A 3.5 3.5 0 0 0 386 470 A 3.5 3.5 0 0 0 389.5 473.5 A 3.5 3.5 0 0 0 393 470 A 3.5 3.5 0 0 0 389.5 466.5 Z M 592.892893218813 465.707106781187  L 597.185786437627 470  L 592.892893218813 474.292893218813  L 594.307106781187 475.707106781187  L 599.307106781187 470.707106781187  L 600.014213562373 470  L 599.307106781187 469.292893218813  L 594.307106781187 464.292893218813  L 592.892893218813 465.707106781187  Z " fill-rule="nonzero" fill="#ff0000" stroke="none" />
    <path d="M 388 470  L 598 470  " stroke-width="2" stroke="#ff0000" fill="none" />
  </g>
</svg>