<?xml version="1.0" encoding="utf-8"?>
<svg version="1.1" xmlns:xlink="http://www.w3.org/1999/xlink" width="104px" height="22px" xmlns="http://www.w3.org/2000/svg">
  <g transform="matrix(1 0 0 1 -943 -558 )">
    <path d="M 956.5 565.5  A 3.5 3.5 0 0 0 953 569 A 3.5 3.5 0 0 0 956.5 572.5 A 3.5 3.5 0 0 0 960 569 A 3.5 3.5 0 0 0 956.5 565.5 Z M 1029.89289321881 564.707106781187  L 1034.18578643763 569  L 1029.89289321881 573.292893218813  L 1031.30710678119 574.707106781187  L 1036.30710678119 569.707106781187  L 1037.01421356237 569  L 1036.30710678119 568.292893218813  L 1031.30710678119 563.292893218813  L 1029.89289321881 564.707106781187  Z " fill-rule="nonzero" fill="#ff0000" stroke="none" />
    <path d="M 955 569  L 1035 569  " stroke-width="2" stroke="#ff0000" fill="none" />
  </g>
</svg>