<?xml version="1.0" encoding="utf-8"?>
<svg version="1.1" xmlns:xlink="http://www.w3.org/1999/xlink" width="69px" height="58px" xmlns="http://www.w3.org/2000/svg">
  <g transform="matrix(1 0 0 1 -65 -2467 )">
    <path d="M 65 2467  L 134 2467  L 134 2525  L 65 2525  L 65 2467  " fill-rule="nonzero" fill="#cccccc" stroke="none" />
    <path d="M 69 2471  L 130 2471  L 130 2521  L 69 2521  L 69 2471  " fill-rule="nonzero" fill="#ffffff" stroke="none" />
    <path d="M 105.23 2484.4  C 102.794 2484.4  100.88 2482.486  100.88 2480.05  C 100.88 2477.614  102.794 2475.7  105.23 2475.7  C 107.666 2475.7  109.58 2477.614  109.58 2480.05  C 109.58 2482.486  107.666 2484.4  105.23 2484.4  " fill-rule="nonzero" fill="#cccccc" stroke="none" />
    <path d="M 71 2520  L 71 2494.15  L 85.5 2482.4  L 105.8 2496.29565217391  L 117.4 2489.45  L 129 2496.29565217391  L 129 2520  L 71 2520  " fill-rule="nonzero" fill="#169bd5" stroke="none" />
  </g>
</svg>