<?xml version="1.0" encoding="utf-8"?>
<svg version="1.1" xmlns:xlink="http://www.w3.org/1999/xlink" width="50px" height="43px" xmlns="http://www.w3.org/2000/svg">
  <g transform="matrix(1 0 0 1 -105 -2204 )">
    <path d="M 105 2204  L 155 2204  L 155 2247  L 105 2247  L 105 2204  " fill-rule="nonzero" fill="#cccccc" stroke="none" />
    <path d="M 108 2207  L 152 2207  L 152 2244  L 108 2244  L 108 2207  " fill-rule="nonzero" fill="#ffffff" stroke="none" />
    <path d="M 134.225 2216.9  C 132.419 2216.9  131 2215.481  131 2213.675  C 131 2211.869  132.419 2210.45  134.225 2210.45  C 136.031 2210.45  137.45 2211.869  137.45 2213.675  C 137.45 2215.481  136.031 2216.9  134.225 2216.9  " fill-rule="nonzero" fill="#cccccc" stroke="none" />
    <path d="M 109 2243  L 109 2223.75  L 119.5 2215  L 134.2 2224.94  L 142.6 2220.25  L 151 2224.94  L 151 2243  L 109 2243  " fill-rule="nonzero" fill="#169bd5" stroke="none" />
  </g>
</svg>