<?xml version="1.0" encoding="utf-8"?>
<svg version="1.1" xmlns:xlink="http://www.w3.org/1999/xlink" width="218px" height="22px" xmlns="http://www.w3.org/2000/svg">
  <g transform="matrix(1 0 0 1 -418 -445 )">
    <path d="M 431.5 452.5  A 3.5 3.5 0 0 0 428 456 A 3.5 3.5 0 0 0 431.5 459.5 A 3.5 3.5 0 0 0 435 456 A 3.5 3.5 0 0 0 431.5 452.5 Z M 618.892893218813 451.707106781187  L 623.185786437627 456  L 618.892893218813 460.292893218813  L 620.307106781187 461.707106781187  L 625.307106781187 456.707106781187  L 626.014213562373 456  L 625.307106781187 455.292893218813  L 620.307106781187 450.292893218813  L 618.892893218813 451.707106781187  Z " fill-rule="nonzero" fill="#ff0000" stroke="none" />
    <path d="M 430 456  L 624 456  " stroke-width="2" stroke="#ff0000" fill="none" />
  </g>
</svg>