<?xml version="1.0" encoding="utf-8"?>
<svg version="1.1" xmlns:xlink="http://www.w3.org/1999/xlink" width="166px" height="22px" xmlns="http://www.w3.org/2000/svg">
  <g transform="matrix(1 0 0 1 -992 -426 )">
    <path d="M 1005.5 433.5  A 3.5 3.5 0 0 0 1002 437 A 3.5 3.5 0 0 0 1005.5 440.5 A 3.5 3.5 0 0 0 1009 437 A 3.5 3.5 0 0 0 1005.5 433.5 Z M 1140.89289321881 432.707106781187  L 1145.18578643763 437  L 1140.89289321881 441.292893218813  L 1142.30710678119 442.707106781187  L 1147.30710678119 437.707106781187  L 1148.01421356237 437  L 1147.30710678119 436.292893218813  L 1142.30710678119 431.292893218813  L 1140.89289321881 432.707106781187  Z " fill-rule="nonzero" fill="#ff0000" stroke="none" />
    <path d="M 1004 437  L 1146 437  " stroke-width="2" stroke="#ff0000" fill="none" />
  </g>
</svg>