<?xml version="1.0" encoding="utf-8"?>
<svg version="1.1" xmlns:xlink="http://www.w3.org/1999/xlink" width="183px" height="22px" xmlns="http://www.w3.org/2000/svg">
  <g transform="matrix(1 0 0 1 -975 -238 )">
    <path d="M 988.5 245.5  A 3.5 3.5 0 0 0 985 249 A 3.5 3.5 0 0 0 988.5 252.5 A 3.5 3.5 0 0 0 992 249 A 3.5 3.5 0 0 0 988.5 245.5 Z M 1140.89289321881 244.707106781187  L 1145.18578643763 249  L 1140.89289321881 253.292893218813  L 1142.30710678119 254.707106781187  L 1147.30710678119 249.707106781187  L 1148.01421356237 249  L 1147.30710678119 248.292893218813  L 1142.30710678119 243.292893218813  L 1140.89289321881 244.707106781187  Z " fill-rule="nonzero" fill="#ff0000" stroke="none" />
    <path d="M 987 249  L 1146 249  " stroke-width="2" stroke="#ff0000" fill="none" />
  </g>
</svg>