<?xml version="1.0" encoding="utf-8"?>
<svg version="1.1" xmlns:xlink="http://www.w3.org/1999/xlink" width="375px" height="22px" xmlns="http://www.w3.org/2000/svg">
  <g transform="matrix(1 0 0 1 -450 -1026 )">
    <path d="M 463.5 1033.5  A 3.5 3.5 0 0 0 460 1037 A 3.5 3.5 0 0 0 463.5 1040.5 A 3.5 3.5 0 0 0 467 1037 A 3.5 3.5 0 0 0 463.5 1033.5 Z M 807.892893218813 1032.70710678119  L 812.185786437627 1037  L 807.892893218813 1041.29289321881  L 809.307106781187 1042.70710678119  L 814.307106781187 1037.70710678119  L 815.014213562373 1037  L 814.307106781187 1036.29289321881  L 809.307106781187 1031.29289321881  L 807.892893218813 1032.70710678119  Z " fill-rule="nonzero" fill="#ff0000" stroke="none" />
    <path d="M 462 1037  L 813 1037  " stroke-width="2" stroke="#ff0000" fill="none" />
  </g>
</svg>