<?xml version="1.0" encoding="utf-8"?>
<svg version="1.1" xmlns:xlink="http://www.w3.org/1999/xlink" width="155px" height="22px" xmlns="http://www.w3.org/2000/svg">
  <g transform="matrix(1 0 0 1 -344 -1109 )">
    <path d="M 357.5 1116.5  A 3.5 3.5 0 0 0 354 1120 A 3.5 3.5 0 0 0 357.5 1123.5 A 3.5 3.5 0 0 0 361 1120 A 3.5 3.5 0 0 0 357.5 1116.5 Z M 481.892893218813 1115.70710678119  L 486.185786437627 1120  L 481.892893218813 1124.29289321881  L 483.307106781187 1125.70710678119  L 488.307106781187 1120.70710678119  L 489.014213562373 1120  L 488.307106781187 1119.29289321881  L 483.307106781187 1114.29289321881  L 481.892893218813 1115.70710678119  Z " fill-rule="nonzero" fill="#ff0000" stroke="none" />
    <path d="M 356 1120  L 487 1120  " stroke-width="2" stroke="#ff0000" fill="none" />
  </g>
</svg>